/* XPM */
static char *_067ff8a01904c6fc6faca77006ca674QpZxMceRQOuFEeJi[] = {
/* columns rows colors chars-per-pixel */
"64 64 20 1 ",
"  c black",
". c gray11",
"X c #202020",
"o c #282828",
"O c gray19",
"+ c gray22",
"@ c gray25",
"# c #484848",
"$ c gray33",
"% c #646464",
"& c gray44",
"* c #7C7C7C",
"= c gray55",
"- c #989898",
"; c gray66",
": c #B4B4B4",
"> c #C0C0C0",
", c #D0D0D0",
"< c gainsboro",
"1 c #ECECEC",
/* pixels */
"OOOOOOOOOOOOOOOOOO++++++++++++++++++++++++++OOOOOOOOOOOOOOOOOOOO",
"OOOOOOOOOOOOOOOOOOOOOOO+++++++++++++++OOOOOOOOOOOOOOOOOOOOOOOOoo",
"ooOOOOO:%OOOOOO>%OOOOOO>%OOOOOO>&OOOOOO>%OOOOOO>%OOOOOO:%OOOoooo",
"ooooOOO%XOOOOOO%XOOOOOO%XOOOOOO%XOOOOOO%XOOOOOO%XOOOOOO%XOoooooo",
"ooooooOOOOOOOOOOOOOOOOOOOOOOOOOOOOOOOOOOOOOOOOOOOOOOOOOooooooooo",
"ooooo                                                      ooooo",
"ooooo ,,,<<<<<<11111111<<<<<<,,,>>>::;;;-----=========**&&&#oooo",
"oo-$o ,,,,,<<<<<<<<<1<<<<<<<,,,,>>::;;;;----=========***&&&#o-$o",
"oo$.o >,,,,,,<<<<<<<<<<<<<<,,,,,>>::;;;;---===========**&&&#o$.o",
"ooooo >>>>,,,,,<<<<<<<<<<<<<,,,,,>>::;;;----==========**&&&#oooo",
"ooooo ::>>>>,,,,,,,<<<<<<<<<,,,,,,>>::;;;---===========**&&#oooo",
"ooooo ;:::>>>>,,,,,,,<<<<<<,,,,,,,>>:::;;;--===========**&&#oooo",
"ooooo ;;::::>>>>,,,,,,,,,,,,,,,,,,>>>::;;;---=========***&&#oooX",
"Xoooo ;;;;;::::>>>>,,,,,,,,,,,,,,,,>>::;;;--====*********&&#oXXX",
"XXXoo --;;;;:::::>>>>,,,,,,,,,,,,,,>>::;;----===********&&&#XXXX",
"XX=#X ---;;;;;::::::>>>>>,,,,,,,,,>>::;;;---=====*******&&&@X=#X",
"XX#.X =----;;;;;;::::::>>>>>,,,,>>>>::;;;--======*****&&&&&@X#.X",
"XXXXX =-----;;;;;;;:::::>>>>>>>>>>>>:::;;---=====*****&&&&%@XXXX",
"XXXXX *==----;;;;;;;;;;::::::>>>>>>>:::;;;--=====******&&&%@XXXX",
"XXXXX *==------;-;;;;;;;;;:::::::::::::;;;---====******&&&%@XXXX",
"XXXXXo$$$$$$$$$$+=-;;;;;;;;;;;:::::::::;;;;;--===******&&&%+XXXX",
"XX######$$$$$$$O.&----;;;;;;;;;;;;;;:::;;;;;--====*****&&&%+XXXX",
"XX+XXXXXXXXXXXX..%--------;;;;;;;;;;;;;;;;;;---===****&&&&%+XXXX",
"XX+XX.........X..%===----------------;;;;;;;---====**&&&&%%+X*@X",
"XX+XX.**=====.X..%=======-=-------==-----;-----====**&&&&%%+X@.X",
"XX+XX.&$$$$*=.X..%======================------=====***&&&%%+XXXX",
"XX+XX.&#...;=.X.o+++++++++++++++++++++++++++++++++++++++++++++++",
"XX+XX.%#...;*.X..XXXXXXXXXXXXXXXXXXXXXXXXXXXXXXXXXXXXXXXXXXXXXXX",
"XX+XX.%#...;*.X..XXXXXXXXXXXXXXXXXXXXXXXXXXXXXXXXXXXXXXXXXXXXXXX",
"XX+XX.%*-.>:&.X..XXXXXXXXXXXXXXXXXXXXXXXXXXXXXXXXXXXXXXXXXXXXXXX",
"XXOXX.%%#.>&&.X..XXXXXXXXXXXXXXXXXXXXXXXXXXXXXXXXXXXXXXXXXXXXX..",
"..OXX.%%#.;%%.X..XXXXXXXXXXXXXXXXXXXXXXXXXXXXXXXXXXXXXXXXXX.....",
"..O...%%#.;%%.X.                                                ",
"..O...&&*=-%%.X..@@@@@@@@@@@@@@@@@@++++++@@@@@++@@@@@######X....",
"..O.. &*&&&%%.X..@$%%%%%$%%%%%%%$$$$$$$$$$$$$$$$$$$$%%%%%%%O....",
"..O.. ***&&%%...XOOOOOOOOOOOOOOOOOOOOOOOOOOOOOOOOOOOOOOOOOOOOOOO",
"..O.. ****&&% ..................................................",
"..O.. &***&&% . ................................................",
"..O.. &&&&&&& .                                                 ",
"..O..         .  ooooooOOOOOOOOOOOOOOOOOOoooOoOOOOOOO++++++X.   ",
"..O............  O##################################$$$$$$$O....",
"..X              O###@@@@@@###########################$$$$$O....",
".....            O@@@@@@@@@@@@#########################$$$$O....",
"..... OOOOOoooOOoo@@@@@@@@++++@@@@######################$$$o....",
"..... ####@@@@@@@@@@@@@@++++++++@@@@@@@@@@###############$$o....",
"..... #####@@@@@@@++++@++++++++++++@@@@@@@#################o....",
"..... ######@@@@@++++++++++++++++++++@@@@@@@###############o....",
"..$O. @#######@@@@+++++++++++++++O++++++@@@@@##############o.$O.",
"..O.. @@@####@#@@@+++++++++++++++OOOO+++++@@@@@############o.O..",
"..... +@@@@@#@@@@@@+++++++++++++++OOOO+++++@@@@@###########o....",
"..... +++@@@@@@@@@@@+++++++++++++++OOOOO+++++@@@@@@#@#@@@@@o....",
"..... O++++@@@@@@@@@@++++++++++++++OOOOOOO+++++@@@@@@@@@@@@o....",
"..... oOO+++++@@@@@@++++++++++++++++OOOOOOOO+++++@@@@@@@@@@o....",
"..... ooOOO++++++++@+++++++++++++++++OOOOOOOO++++++@@@@@@@@o....",
"..... ooooOOO++++++++++++++++++++++++OOOOOOOOOO+++++@@@@@@+o....",
"..$O. oooooOOOOO+++++++++++++++++++++OOOOOOOOOO++++++++@+++o.$O.",
"..O.. oooooooOOOOO++++++++++++++++++++OOOOOOOOOOO++++++++++o.O..",
"......oooooooooooooooooooooooooooooooooooooooooooooooooooooo....",
"................................................................",
"................................................................",
".......$o......$O......$O......$O......$O......$O......$o.......",
".......o.......o.......O.......O.......O.......o.......o........",
"................................................................",
"................................................................"
};
