/* XPM */
static char *_ac7738d9bc54524c310b5d0c3f3801bw0bvu3nIkKZUoODP[] = {
/* columns rows colors chars-per-pixel */
"64 64 25 1 ",
"  c black",
". c gray11",
"X c #202020",
"o c #282828",
"O c #2C2C2C",
"+ c gray19",
"@ c #343434",
"# c gray22",
"$ c gray25",
"% c #484848",
"& c #4C4C4C",
"* c gray33",
"= c gray36",
"- c #646464",
"; c gray44",
": c #7C7C7C",
"> c gray55",
", c #989898",
"< c gray66",
"1 c #B4B4B4",
"2 c #C0C0C0",
"3 c #D0D0D0",
"4 c gainsboro",
"5 c #ECECEC",
"6 c gray99",
/* pixels */
"*=====--------------------------------------------------=====**#",
"*#############################################################@ ",
"*@##########################################################@@@ ",
"*@@@###1;######2;######2;######2;######2;######2;######1-@@@@@@ ",
"*@@@@@@-X######;X######;X######;X######;X######;X######-X@@@@@@ ",
"*@@@@@@@@@##########################################@@@@@@@@@@@ ",
"*@@@@                                                     +@@++ ",
"*+<-@ <66<<66<166<<66<<66<155,,54>>33::22:;<<;;<<;;<<;->>-*+<-+ ",
"*+-.+ 254<254<2651365<3651364<253,<32>,1<:><,;><,;:,,;:>:;*+-.+ ",
"*++++ <55,<65,166<266<166<166<<55>,43:>31;:11-;<<;:1,-;<>-*++++ ",
"&++++ ,45,<55,<65,166<166<<66<<65,,43:>32;:11;:1<;:1<;;,>-*++++ ",
"&++++ >43>,55,,55,<66<<66,<66,<66>,53>:32:;11;-1<;;<<;-,,-&++++ ",
"&++++ <32><43,153<255<365<365<254<243><31>,<,;>,,;><,;:>>;&++OO ",
"%OO++ >33>,33><54,<55<166<166<<55,<43:>21:>2<;:,,-:<<-;,>-&OOOO ",
"%OOOO :22>>33>,54>,55,<66,<66,<65,<53>>21;:2<-;<,--,<--,>-&OOOO ",
"%O,*O :22:>33>>34>,55>,55><66,<65,,53>:31;:11;;<<=-,,=-,>=%O,*O ",
"%O*.O >1<:,21><21,143,143,154<253,142>,2<:><<:>,>;;>>-;>:-%O*.O ",
"%OOOO :11;>32:>32:>44>,44><45,<45><44>>21;:1<;:<,-;,>*->>*%OOOO ",
"%OOOO :11;:12:>32:>33>,44>,44,,45>,44>>31::1<;:1,--,,-->>-%OOOo ",
"%oOOO ;11;;12::22::32::44>>44>>44>>44>>33;:2<;;<<--,,-->>=%Oooo ",
"%oooO :<<:><<:><1>,21>,21><32><32><32><31>,1<:><,;:>>-;>:-%oooo ",
"%oooo ;<<;:1<;:1<;>22:>22:>22>,33>,33>,33>>2<;:<<-;,>=-,:=%oooo ",
"$oooo ;<,;;1<;:1<;:12:>22:>22:>22:>33>>33>>21;:1<-;<>=->:*%oooo ",
"$o>*o -<<-;<<;;1<;;11:;22::22::22::22:>33:>21;;1<--<>==>:*$o>&o ",
"$o&.o ;,>;:<,;><,;><,;><<;>1<:><<:>1<:>11>>1<:><,;:,>-;>:=$o&.o ",
"$oooo -,,-;,,-;<<;:<<;:<<;:<<;:<<;:<<;>11;:11;:<<;:,,-->>-$oooo ",
"$oooo =>,--,,-;,,;;<<;;<<;;<<;;<,-;<,;;<<;;<<-;<<-;,,-=>>-$oooo ",
"$oooo *>,--,,--,,--,,--,,--<,--<,--,,--,,-;<<-;<<-;<,--,>=$oXXX ",
"#XXXo -::-;>>-:,>-:,>-:,>-:,>-:,>-:,>-:,>-:,>-:,,;:,>;;>>;$XXXX ",
"#XXXX =>:*->>-;,,-;,,-;,,-;,,-;,,-;,,-;,,-->,-;,>-;<,-;,>-#XXXX ",
"#XXXX *>:*=>>*=>>*=>>--,,--,,-=>>*=>>*=>>*=>>*=,>=-<,--,>-#XXXX ",
"#X:%X &::**>>**>>**>>**>>*->>**>>**>>**>>**>>**>>=-,>--,,-#X:%X ",
"#X%.X =;;*=;;*-::*-::*-::*-::*-:;*-;;*-;:*-::*-:;*;>:-;>:-#X%.X ",
"#XXXX *;;%*:;&*::*=>;*=>:*=>:*=>;&*:;&*:;&*:;&*:;*=:>*->>*#XXXX ",
"#XXXX %;;%*;;%*:;&*:;&*:;&*:;&*:;&*:;&*:;&*:;&*:;%*::*->>*#XXXX ",
"#XXXX $--%&;;%&;;%&:;%&:;&&:;&&:;&&--$%--%&:;%&;;%&;:**:>&#XXXX ",
"#XXXX &-=%*-=%*-=&=;-*=;-*=;;*=;;**-=%*-=%*-=&=;-&*;-*-;;*#XXXX ",
"#XXXX %--$%--$%--$%--$*;;%*;;%*;;$%--$%--$%--$%;;%*;;&*:;&#XXXX ",
"#XXXX %--#%--$%--$%--$%--$%--$%--$%--$%--$%--$%--%&;;%&:;%#XXXX ",
"#X;%X #**#$--#$--##=*##--$$--$$--$$--$$-*$$--#$--#%;;%%::%#X;$X ",
"#X$.X %**#%**$&**#%**#%**%&-*%&-*%&-*%%**%&**%&=*$&--%*;;%#X$.X ",
"@XXXX #**##**##**#$**#$**#$**#%--#%--#$*-#$*-#%-=#%;-%&;;%#XXXX ",
"@XXXX #**@#**##**##**##**##**##**##**##**#$--#$--#$--%%;;%@XXXX ",
"@XXXX #-*@#**@#**##**##**++&&##**##**##**##--##--##-=%%;-$@XXXX ",
"@XXXX %**#$*&#%*&#%*&#%*&@#%%@#*&#%*&#%*&#%=*$%**$%**%*--%@XXXX ",
"@XXXX $=*##**@#**@#**@#**@@&%+@&%@#**@#**@%-=#%==#$=*#$--#@XXXX ",
"@XXXX #=*##=*@#**@#**@#**@#&%+@&%+@**@#**@$==#$==##=*##=-#@XXXX ",
"@X-#X #==##==#@**@@**@@**@+&&++&&++&*@@**@@==##==##==##=*#@X-#X ",
"@X#.X %**#%**#%*&#$*&#$*&#$%%+#%%+#%%+$*&#$**#%**#%**#%**#@X#.X ",
"@XXXX #**#$**#$=*@#**@#**@@%%O@%%O@%%O@**@#**#$=*#$**#$**#@XXXX ",
"+XXXX @**##**##**@#**@#**@#*%O+%%O+%%O+%*@#**@#**##**##**#@XXXX ",
"+XXXX O**+@**##**##**@@**@@**@@%%O+%%O+%%O@**@@**##**##**#+XXX. ",
"+..XX #%$@#&%#%**#%&%@$&%@$&%@$&%+#%$+#%$+#%%@#&*#%**#%**#+.... ",
"+.... O$%O#*&+#*&+#*&+#*&+#*&+#*&++%%O+%%O+%%+#*&##**@#**@+.... ",
"+.... o##O+%&+@*&+@*&+@*&+@*&+@*&+@%%O+%%O+%%O@*&+#**@#**@+.... ",
"+.-#. X##oO%%O+&&+@&&+@*&+@*&+@*&+@*%OO%%OO%%O+&&++&*@#**@+.-#. ",
"+.#.. O#@X+##O@$#@#%%@#%%@#&%@#&%@#&%+@%#+@$#O#%%@#%%#$*&#+.#.. ",
"+.....+++++++++++++++++++++++++++++++++++++++++++++++++++++.... ",
"+.............................................................. ",
"+.............................................................. ",
"+......-#......-#......-#......-#......-#......-#......-#...... ",
"+......#.......#.......#.......#.......#.......#.......#....... ",
"O.............................................................. ",
"X                                                               "
};
