/* XPM */
static char *_68f24b6efc94d3eb17aad284b8df4ae8GXzB3T9rmr2zWA1[] = {
/* columns rows colors chars-per-pixel */
"64 64 33 1 ",
"  c gray11",
". c #202020",
"X c #282828",
"o c gray19",
"O c gray22",
"+ c #400000",
"@ c #4C0000",
"# c #580000",
"$ c #640000",
"% c #700000",
"& c #7C0000",
"* c gray25",
"= c #484848",
"- c gray33",
"; c #646464",
": c gray44",
"> c #7C7C7C",
", c #880000",
"< c #980000",
"1 c #A40000",
"2 c #A80000",
"3 c #B00000",
"4 c #BC0000",
"5 c #C80000",
"6 c #D40000",
"7 c #E00000",
"8 c #EC0000",
"9 c #FC2020",
"0 c #FC4040",
"q c gray55",
"w c #989898",
"e c gray66",
"r c #B4B4B4",
/* pixels */
":>qqqqqqwqwqeqqwwr>eqwewewqwewwqeeqeqweewwewwqeqwwqqqqqqqq>q>qq:",
"999999999999999999<we0999999999999999999wqe3333333833333333886>>",
"1347585331333337356;q9333336333333333<31-ww3333563633753643<35=>",
",326788731533583383;w93733,4373&33,53333;wq3543333338683833<65->",
"2552783532334363333;q9333313353433633333;qw31683585652383<8<76->",
"717<363%73333373338-q9363473333733383873-qq33332838481343%8885-:",
"<47764727837,155285=>88334263437338433<3=q>8833&653266745<6626=:",
"*==-=---=-=---;-;-=-q:---------=---;-----qq:-=---------==--====>",
";>>:>>:>:>:>>q>:::q>qq>qq>>q:qq:>>>q>>>qq:::>>>::q:::>:>q>:::::;",
"77567378<>q8878337373733833383:>3883333833833888386:>>8677675776",
"<7<17%675-:7648784344774314672=>8&<3783738&78&88684=::6%76472656",
"65&47%674=:865816888<632743367->8673<8788<87838788<=>:7457564646",
"463661664=:7&57<7864<672578537-q8385,8875<827<7266,=::647666<5&6",
"25316&$4,=:6<7735764758&688<68=:64777585,46&6545772=::4231<415%5",
"+3<44#<44=:42534555<5<5#55&<56=>45552554454234555&2=;;4%2413$<,3",
"==*=oO=OOO:-=*===O=*==--=======q-*=======OO==-*O====;;-*=*==*=O*",
"-;--;:;-;:;:;-::>:::;;:-;:::>::>;:>::::::;>:::;::;-;;;:;;;;;-;-;",
"4443545555456456664;:>6666664665666564635;;66555565552525554<3-:",
"<<1<4445,1&55<55,22=;;261664666&4645<%533O:561454535<,2244&1#2o-",
"4<4<1144$5&11,24,23*-:44,454623<6646,4243=;55&5<4335533443#4,1O-",
"3414<434@3145&43241=::55554451&535<34345<=;545<,5<54,2,434@2<<O-",
"2%%3,444%43,2<,13<2=;-3,44,55224,5253255$O-4<4+31&&<,41442%23&*;",
"#,<13,<1<<<<<<$121<O;-,,22%2%,21<21<<<22%=-222%<2211111<<11&<<*-",
"OOOoo*OOO*oo**==*OO*:;=OOO==*O*O*OOO=OOO**;=OOOOOOOoOoOOOOooOoo-",
"---=-----==-----=--;----;-;-;;;-;--;-;-------=-=-------==-=----=",
"22122111--23333233<32,421213<=-;413<42324343132233<-:21,1221<111",
"<1&1&12,O-212$32&3<33$321223%O--333%3&3%3<%3&1<<<,%o;21<2<2,%<<1",
"%$<1&2<<O=<22+2,#<$<1#<3<333,o--13%,32,&3<12,3%222,O-1,12<1&&1<1",
"+,11&<&&o-#<2$2<%2<<<<13%321,O--23$331<<,21,2$&2<1<o-2,1<<1##,<<",
"&<<,&1<<O=$12#2,&2<&2$#,<2,2&*--2&<121&2<2,,2$<2,1<o-1%,<11+&<<<",
"&%$&#,&<O=<<,,<&<<<%<%<<<<&<$O=-<$<<<%%,&,%%<$<<#<<o-&#,,,%#&,&,",
"XooooooOX-OXXoooooooooOOOoooOo--=ooOXoOoooooooooooXo-=ooOooooooo",
"O=-===--==-----=----==-=-----=---=--=-==---=---=------=-=*======",
"=,<,<<<&<<<<<<<<<<<%=-<<<<<<<,,1<<1,<<<<&=--<<<<,<,,,,<<<&<,,&<=",
"*<,<,&&,%$<<&<<$<%<$o-<<#<<,$,11&%,#<<<#,o==,<<<#<<,<<<%,&,,<&,o",
"-,<&,@<<<<<%<,&,<%%<O-<<&<<,%<#,<$<$,<<+,o--<<,<$<$%<%<@<,<,,$,o",
"=&,&,%,%&<,$<%<<<$&,X=,&&%<%#<+<<%<&<<,$&o==,&<&%,#,<,<&<$&<,$&X",
"=,,,$#,%<<%$<&&%%$$&o=<,,,,&&<+<<#&%<,%,,o-=<&&%$%&<<,$#%,,,$$%X",
"-&#%$%%#&&%%&$%&$%&,o=,%$&,,$&$,&$&,$&@,&X==<&%&$$%&%&$&&%$$&&%X",
"=o.XXXooooXooXXoXooXX=OoooooXXXooXooXooooX--*Xoooooo.XXooXooXX.X",
"===-======*=====*=============--=============*=O==O=O=*=O*=Oo=**",
"$&,,&%,&o-=,,,,,&,,,&&,,,%,,@&O=,,,,,,,,,,,,,&,,,,$=*,&&,,&&,,&&",
"%&&,+%&%X==,&@$,%@#,%&,&&#,$$%o=,#$%,%&,$&%$,&&@,%$X=,+,&&$&&&&&",
"%&%%@&&%X**&&$,&,$,,&,&,,,&@$&X=&$,%,,,,#,&#%&%,,&%o=$+,&&&&%%%&",
"&%%&$&&%XO*&$%$%,@,&%,&,%&%#&&X*&,,$,&&%,,$%,,,%,,%.O&$&%%%#%&#&",
"&&@$#&%$X*=%#&+%%+&#%,&,,%&%,#X*&,$$&,&#&#+&$%%@&%$X*%%%%$&@&&@&",
"+$#@$$#%oOO$%$+$%$%@%%+%$@%$$%oO@%#%$%#$%#$%@%%@%$$XO@$@#%%#$##%",
"XXX...XXXO=oX.XXX.XXXXXXXXo.XXX=ooX.XXXX...X.X..X.XXOXXXX.X.XXX.",
"oOoOOOOOoOoO**Ooo*OOOOOO*O*O=****O*=*O**===*=***=OOOOO=OO*OoO=O=",
"O*=&%%&%%&&%&%%&&&&%&&O*&&&&&&&&&&&%&&&&&%%o=&&&&%%&&%&%&%%&&%%%",
"oOo%%%&##&&$$&%%&%#$%#X*%#%%%$$&&%+$&%&&&+$X*&&%$%@&&$&$%#%$%#$%",
".oO%@%%$%$%#%%%%&&$@&@.O&$&&$%&&$&@&&#&$&+$XO%%$$$@&%%@%%#%#%#%%",
".oO%#%##%@%$%$%$%#+@&@X=&&$+##%$$%%#%+%+&+$X*%&##%$%+%@%$@%@%$%%",
".Oo$#%#@$+#%%#%$%%%%%$X=&$+#&%%+&%+@&%&$%+$.O$%$%%$%$$#%$@%@+%%%",
".oo#$##+#+$$@$#$@#$$@%.=$#@$$#$#$$@$$$##$+#X*@$$@@#@@+$$$@$+#$#$",
".OOo...XXX...X.X.XXX..X=oX..X..X...........X*X....X.X...X....  .",
"ooOooXoOoOoooOoooOooO*OOO=ooOoooOoOoOOooO*OOOOOoOOooooooOooOoOOo",
"$$$%%$%%oO%%$%$$%%%%%$$$$$$%%oOO%%%%%%$%%%%%$%%$%$#oo%%$$$$%$$$$",
"@$@%%#$#.O$%%%+%%%$@%@%##$%%+.Oo%#+%+#+$$$#$$%$+$%#.o%%#%%@%+$$$",
"$$+$$+##.O$$$@$$$#$@%@%#$$%%#XOO%+@%@%$$%%+%%##+#$$.o$%+###$+$#$",
"$$@$$+$#Xo@%$#%$%#%$@$$#$#@$$.oo$++%$%$#$#+%$+#$%%#.o$$+$$$$@$#$",
"#@+$$+##.o#$#@$@%#%%@%$@##$%#.oO$%@%+%$$$+$#$@$$$$@.o#$+@$$#+#@#",
"+##@#+#$.o@#+##+####+##@####$.Oo#@@#+####+#@#+#+##+.o##@@@@@@#+#",
". .......oX.. ...  ........X. ooX........... ..... .oX.. .  ...."
};
