/* XPM */
static char *f311ddbd6bc64b9d8dbdb1204650e5easLqayNgN2hJiUqZB[] = {
/* columns rows colors chars-per-pixel */
"64 64 21 1 ",
"  c #2C2C2C",
". c gray19",
"X c #343434",
"o c gray22",
"O c gray25",
"+ c #484848",
"@ c #4C4C4C",
"# c gray33",
"$ c gray36",
"% c #646464",
"& c gray44",
"* c #7C7C7C",
"= c gray55",
"- c #989898",
"; c gray66",
": c #B4B4B4",
"> c #C0C0C0",
", c #D0D0D0",
"< c gainsboro",
"1 c #ECECEC",
"2 c gray99",
/* pixels */
"*****=======================------=======================*******",
"*,,,,,,<<<<<<<<1<<1<11112<111<>&=11111<11111<<<1<<<,<<,,<,,,,,:%",
"*::>:>:,,>,>,,,>>,,>,<,,,>,,,,;&=,,<,,,1<,,>,,<>>,,:>,>::;>::;=%",
"*,::;>>:::>:,;>:,,,,,,:><<,,,>-&=1,,><,>>>,:,:>:,>>,>>;:>,:::;=$",
"&,;>>>::,>:>>>,>>,>>>>><,,,1>,-&=1>,<,>><>>>,>,>>,>::::,:>:,;:=$",
"&:;::;;::::>>>>:>,,>:>,,:>:>;,-%=,>,,>>,>>>,>>>:>,,:;:>:;;-;-:=#",
"&>:;;::>::;:>:>:>,:;>>,>>,>>>,-%*<>>>>>,>>:>>:>:>>:;>::::>::;:*#",
"&:;:::;;:;:>:;::>:;:>>::>>:,,>=%*,:>>,::::>>>:>:::;:>:;;::;::;*#",
"&:;:;;;;>::;:>:;:::::>:::::::;=%*,:>::;:,:>::>:;::;:;:;;;;;;-=*#",
"&:-;-;:;;-;;:;;;>:;::>::>;>:>:=%*,;:;:>:;;;;:;;;:;;:::;;:;;;;-*#",
"%:;:;;;;;;;;:;;;:;;::;:;::::;;=%*>:>:>:;::;::;;;;;;:;;;-;;;;--*#",
"%;----=;;;::;-;;;;;:::::>;;;;:=$&;:;;;-:::>:;-;;-;;;;;;;:-----*#",
"%:;--;-;;;;-;;;;;;:;:;;;;;;:::=$&>>;;:;:;;;;;;;;;;;;;------;;;&#",
"%;;-;;-;-;-;-:;:;;;;;;::::-;;;*#&::;;:;;;;-;;:;:;-;---;;;;=---&#",
"%*&&*&*****&&*&**=*=*********&&#&=**=*====***=&******&*&&&&&&%&@",
"%###############################&############################@@@",
"%%%%%%%%%%%%%%%%%%%%%%&&&&&&&&&&&&&&&&&%%%%%%%%%%%%%%%%%%%%%%%%%",
";-;--;-;;;;;;;-#%:;:;;;::;;;;;;:;;:;;:;;:;;;;;-#%;;;;;-;;;;----;",
"==-==-====-=-=&#%--;=--;;-;-;-;=-;;=-;---=---=&#%-=-===;-=-===-*",
"====-=*=--====&#%;--=;-===-=;=-=------==;;---=&#%;-==-=====*-*=*",
"=======-=-=;=-&@%;=-;-==;-----;------==;---;=-&@%;=---==-=======",
"==-=*===*=*=*-&@%-=--==-==-----=--;===--====*-&@%-=-===========*",
"==**=====-===-&@%;===-=-====-=-=--=*---==-====&@$;========*==*=*",
"==*===========&+$-=-=-====---===-===-===--=--=&+$-=====*=====*=*",
"==*=*=**=*===*%+$-=-====-====-===============*%+$-==****===*===*",
"=*&===*==*===*%+$-*=*====**====*==*==========*%+#-*=*==*****=**&",
"***=**=*=**=**%+#-=====*===============*====**%+#=====******=***",
"&***=**==****=%+#*=****===-==**=*========****=%+#=****&*=*==*&**",
"*******&***===%+#==**=*=*==*=*=*=====******===%+#-=*&=*=***&****",
"*&*&**====&***%+#==*==*=*=*=*====*=***====&=**%+#=********&*&=**",
"#%$%$#$#$$$$$##+#&%$%%%%%%%%%%#%%%%%%%%$$%$%%#%+#&$#%$%%%%%##%##",
"OOOOOOOOOOOOOOOo#++++++++++++++++++++++++++++OOO#OOOOOOOOOOOOOoo",
"@@#########################################################@@@@@",
"@=*=***==*==*====*=======*===*&O#=====*==========*=**=**=*****%o",
"@&&*&&&****&***&&**&*=*&&&***&$O#***&*&=***&***&&**&**&&&%&&&&#o",
"@*&&%*&&&&&&*%&&******&&**&&*&$O#=*&&**&&&&&*%&&*&&***%&**&&&%#o",
"+*%&*&&&*&&&&&*&**&&&&&=&**=&*$O#=&***&&*&&&*&*&&*&&&&&*&&&*&&#o",
"+&&&&&&&&&&&&&&&&**&&&**%&%&%*#o@*&**&&&&&&*&&&&&**&%&&&%&%&$&#o",
"+*&&&&&&&&%&&&&&&*&%***&&*&&&*#o@=&&&&&*&&&&&&&&&*&%&&&&&*&&&&#o",
"+*%&&&%%&&&*&&&&&&%&*&&&*&&**&#o@*&*&*&&&&&*&&&&&&%&&&&&&&%&&&#o",
"+&%&%%%%&&&&&&&%&&&&&&&&&&&&&%#o@*&*&&%&*&&&&&&%&&&&&&%%&%%%%$#o",
"+*%&%&&&%%%%&%&%&&%&&&&&&&&&&&#o+*%&%&&&%%%%&%&%&&%&&&%&&%&%&%#o",
"+&&&&&%%&%%&&&&%&&&&&&&%&&&&%%#o+*&*&&&%&&&&&&&%&%%&&%&%&%%%%%#o",
"+&%%%%$&&&&&&$%%%&&&&&&&&%%%%&#o+&&%%%%&&&*&&%%%%&%&&%&&&%%%%%#X",
"+&&%%&%&%%%%%%%%&&&&&%%%%%%&&&#o+*&%%&%&%&%%%%%%&&&%&%%%%%%&&&@X",
"+&%%%%%&%%%%%&&&%%&%%%&&&&%&&%#o+&&%&&%&%&%&%&&&%%%%%%&&&&$%%$@X",
"+#@+#@#####@@#+@#####@#@@@@#@@+o+##@#@#####@@#+@#####@@++@+@@O@X",
"OXXXXXXXXXXXXXXooooooooooooooooo+ooooooooooooooXXXXXXXXXXXXXXXXX",
"OOOOOOO++++++++++++++++++++++++++++++++++++++++++++++++OOOOOOOOO",
"%%&%%&%&&%&&&&$X+&&&&%&&&&&&&&&&&&&&&&&&&&&&&%#X+&&&&&%&&&&%%%%&",
"$%%$%%%%%#%%%%@XO&%%%%&&%%%%%&$%%%%%&%%%#%%%%%+XO%%%$%$&%%%$%%%#",
"%%%%%%#$%%%%%$@XO&%$%%%$%%$%#%#%%%%%%#%%&%%%$%+XO&%%#%%$#$%#%#$#",
"%%$$$#$%%%%&$%@XO%%%%%%&%%%%%%%%%%%%$%&%%%&$%%+XO&$%%%$$%%$$%$%$",
"$%%$#$%%#$#$#%+XO%%%$$%$%%%%%%%%%%%$$%%#%#$#%%+XO%$%%$$%$$$%%%$#",
"%%##%%%$%%%%%%+XO%$%%%%$%$%%$%$%%$#%%%%%%%%%%%+XO&%$$%%%$$#$$#%#",
"$$#$%$#$%%$%%%+.O%%%%$#$$%%%$%$%%#%%%$$%%$%%%%+.O%$%%%##$$%%%#$#",
"$$#$#$##$#$$##+.O%%###$%%%$%%%$%%$%$%$$%#$$##$+.o%$%####%$%#$%$#",
"%##$$%#$%#%$%#+.o%%#$%$####%#$#%$#%%%$%%#%$%#$+.o%#$#$%#####$###",
"###$##$#$$#$##+.o%%$%$#$$$$%$$$$$$%$$$#$$$$##$+.o%%%$%$#$###$###",
"####$#$$%####$+.o%####$%$%%$##$#$$$%$$$%####$$O.o$#####$$#%%#@##",
"##$#$######%%%+.o%##%#%#$####$#$$%$%######%%%$O.o%%##$#%########",
"######$####$##+.o%#$$#$#$#$#%%%$#$###%%%%#$$##O.o%$#$$#$#####%$$",
"O++o+O++++OOOOo.o+O+O+++++OO+o++++++O+OO+O+OO+X.o@+O+O+++++OO+oO",
"           .....o...............................o..             "
};
