/* XPM */
static char *_08f79830a8d43c4a84335fc5ee78491ZpUA9XEQ0tHots6G[] = {
/* columns rows colors chars-per-pixel */
"64 64 21 1 ",
"  c #00001C",
". c gray11",
"X c #202020",
"o c #282828",
"O c gray19",
"+ c gray22",
"@ c gray25",
"# c #484848",
"$ c gray33",
"% c #646464",
"& c gray44",
"* c #7C7C7C",
"= c gray55",
"- c #989898",
"; c gray66",
": c #B4B4B4",
"> c #C0C0C0",
", c #D0D0D0",
"< c gainsboro",
"1 c #ECECEC",
"2 c gray99",
/* pixels */
",,<<<<<111122222222222222222222222222222222222222221111<<<<,,,>>",
"21122<22212112.222221<11212221.122112221122<22X121121222221<11.>",
"2>:>,1<,<1,,21.121122222222122.221222122112221.2111<1,1,>,>,<>.:",
"2;,,>;,,1,<<1>.<<11222,2222212.222222211222,11.12<1>>,:,>>>>;>.:",
"2>;;,:;>,>,,><.12<1<,,22<<112<.221111112<>1,><.,2,>,<<,>,>:;>>.;",
"1-;>;,,,:>>,,<.>11<>12,<<<1<11.<2,2,,,<,,1>11<.,2,,,>:;>:->,;;.;",
"2:;;::;:>,>>>>.,2,>,,,,>11<1,,.<2<>,1111<,,,,,.,2>>>:>>:;;;;--.;",
",;;;;;:;:;:>>:.>1,,,>><,>:,,<,.,2,<,,>>,,,>>>>.:2>>;::;>>>--:;.-",
",=;;;-;-;:>::>.>2:;:>>:>>>>>:>.:2>>>>>>;>>>:>:.:2::>>;;---;---.-",
",----;;:;;;;>;.:2:::>>>>,,>>,>.>2>>,>>>>>>;;:>.:2>;--;;;;-----.=",
",----;--;:-;;;.;1:>>:;;:;;;;;:.:2>;:>>>>;:>>>;.:<;;;;;-------=.=",
">---=---;--;::.;,;:;;;::>:::>>.:2::;:::>>;-;-;.;2;:;--=-;--===.=",
">===-=-;---;--.;1;-;;;;;;;;;;;.-2;;;;;;;-;:-;:.-1;------====-=.*",
";-=--=====----.-,;;--;;;;;;;;;.;1;;:-;-:;;;--=.=,---===--=*==*.*",
">*==*=-======-.-,-=--;--;----;.=,----;;--===--.-,==-====*-==**.*",
"&..............--..............;-..............==..............*",
"&***&=&*===-=====-=*-==------------=--=====-*=-==-===&*=*&=&&*%&",
">;-;;;>:;;>;>;.->;>>:>,>>>>:,>.=:>,,>>,>:>>>,>.=>;>;>>>-;;-;:; &",
"-*&&%%&&*=*&*=.&;-=-======--=-.=,======--==*=&.=:&*=&&&=&&%%%&.&",
"-%%%&%&*&&&=&&.=;&=*=**--===*=.=;=====-%&***==.&-=&&&=%%&&&&%&.%",
";%&%%&%%%%&&*=.&>=&&&*&****===.*>===&===*&*=&*.&;=%**%**%%%&$%.%",
"*%%%%%%%**&%&%.&;*=*=*=*&=&&&*.*-%=&=%%=*=&*&%.*;%&%%&%%*%%%%%.%",
"-$%%%%%%%%%%%&.%;%%&%&&&**=***.&;*%*&*=%&&&%&%.%-%%&&%%%$%$%%$.%",
"=%$$$%%%$%%&%&.&-%%%&*%%&&%&&&.&;%%%&*%%%%%&&&.&;&%%%%%$$%%%$$.%",
"=%%%%%$$%%$%%%.%-&&%%&&*&%&&&&.&-&&%&&%%&&%&%%.%=%%%$%%%%%$%%%.$",
"&$$%%$%%$%%%$%.%*%%%%%%$&&&%%%.%-&%&%%%&%%%$%%.%-%$%%%$%%%%$$#.$",
"=$$$$$%%%%%%%%.%-%$%$%%%$$%%$$.%=%%%%%%$%%%%%%.%=%%%%%%%$%$$%%.$",
"*$$$%$$$%$%%%%.$=%$$%%$$%%%%%%.%-%%%%%%%%%%%%%.%-%%%%$$$$$%%$#.$",
"%$$#$$$$$$$$%$.%-%%%%$%%%%$%%$.%=%%%%$%%%$$%%$.%=$%$$$$$%$$#$$.$",
"%$$$$$$$$$$$$$.$&$$$$%%%%%%%$%.%=%$$%%$%%%%$$$.$*$$$$$$#$$#$$$.$",
"*$$##$$$$$$$$$.$=%$$$%$$$$$$$$.$-$$$$$%$$$$$$$.$*$$#$#$$#$$$$$.$",
"$..............%$..............$$..............$$..............#",
"###$$$$$##$$$$$#$$$$$$$$%$$$$$$$$%$$$%$$$$$$$$##$$$$$#$$$$$##@$#",
"$$%&&%%&&&%%&%.$%*%&&&%&&=%%*=.$&*&=**%%*&&%%&.$%%&%%&%*%&&%%$.#",
"%#@#@##@$$$$$$.$&#$$#$$$#$$$$#.$%$$#$$$$#$#$$#.$&$$$$##@##@##@.#",
"$@#@@@#$####@#.$%$$$$$$$$$$$$$.#*$$$###$$#$$$$.#%#@###@####@@#.#",
"%@@@@#@@@###$#.#%#$$##$#$$##$$.$%$$$$$$$@@##@#.#%#$##@@######@.#",
"%#@##@###@@@@#.#%@@@##@$#@$###.#%@@######$#@$#.@%@@####@@+@@@#.@",
"$@#@@$@@+###@@.#%#@###@##$#$##.#%$$$#####@@$@@.#%#@@##@#@###++.@",
"$++@++###@#@@#.#%###@+@@@@#@#@.@%#@@@#@@@#@+##.@%@@#@#@##@+O++.@",
"$@++@@@+@#@@##.@%@@@##$@###@@#.#%@@##@##@@#$#@.#$@###+@+++@@#+.@",
"$O@@@+++@@+@@@.@$@@###@##@@#@#.#%###@#@@###@@@.#$@@+++O++@@@+@.@",
"$+++@+++@++@+@.@%+@#@@##@@#@#@.#%#@##@@#@@#+++.+$@+@@@@+@@++@+.+",
"$OO++@@@++@@+@.+$@++@@+@@+@+@@.@$+@+++@++@+@@@.+$@+@@++@++++O+.+",
"$++O++O++@++@@.@%@++@+++@@+@++.@$+++@@@@@+@@+@.@$+@@+@++OO+OOO.+",
"#O+O+OOO+OO+++.@#@@@++@@+++@@@.+$+@@@+++@+@+++.+$@OO++O+++OO++.+",
"#O+O+O+OOO+OO+.+$O+++@++@@@@++.+$@@++@@+@+@++O.O$OO++++OOOO+OO.+",
"O..............O+..............++..............O+..............+",
"O+OO+++O++OOOOO++O+++OOOOOOOO+O+++OO++++OO+++O++OOOOO++O+++OOOoO",
"@###@###$###$$.O#$$$$$$$$$$$$$.+$$$#$$$$$$#$#$.+$#$$##@#$##@@@.O",
"@OOOOOO+OO++OO.O#OO++++O++O+OO.O$O++OOOOO++OO+.O#+OO+OOOOOOOOO.O",
"@OOOOOOoOOOOOO.O#++OOOO+++O+OO.+#OO+OOO+O+++OO.O#OOOOOOOOOoOOO.O",
"#oOOoOOOOOOoOO.O#OoO++OO+O+O++.O#++OO++O+OoOOO.O@oOOOOOOoOOOoo.O",
"@oOOOOoOOOOO+O.+@OOOOOOOOOOOOO.O#OOOOOooOOOOOO.O@O+O++OoOOooOo.O",
"@OOOoOoOOOoOOO.O#+Oo+OOOOOOOOO.O#OOoOOOOOOOOoO.O@OooooOOooOooo.O",
"@oooOOOoooOoOo.O#oOOOOOOOOOO+O.O@OO+OO+OOOOOOo.o#oOoOOOoOOooOO.O",
"+OOOooooOOooOO.o@OoOoooOooOOoO.o#oooOooOOOoooo.O@oOOoooOoOoooo.o",
"@XooooOOoooOoo.O@oOOOOoOOooooo.O@ooOoOOoooOoOO.o@OoooOooOooooo.o",
"@oooooooooOOoO.o@OoooOooOooOOO.o#OOOoOOOOooOoo.o@OoOOoOooooooo.o",
"OooOoooooOoooo.O+oOoOoOOoOoooo.O+oOoOooOOOoooo.O@oooXoooOooooo.o",
"+ooooooooooooo.o+ooooooooOOOoo.o@OooooOooooooo.o+ooooooooooooo.o",
"OXXXoooooooooo.o@Xoooooooooooo.o@ooooooooXoooo.o@ooooooXooooXX.o",
"OXooXoXoooXooo.o@ooooooOoooooo.o+ooooooooooooo.oOooooooooXXooo.o",
"X..............oX..............oo..............oo..............o"
};
